<svg width="365" height="383" viewBox="0 0 365 383" fill="none" xmlns="http://www.w3.org/2000/svg">
<path d="M270.1 66.9L270.5 69.5L239.3 109.5L240.7 106.1H272.5C275.233 106.1 276.967 105.767 277.7 105.1C278.433 104.433 278.933 103.267 279.2 101.6H281.3C281.3 105.6 281.333 108.733 281.4 111C281.467 113.2 281.567 115.167 281.7 116.9C281.233 116.767 280.367 116.7 279.1 116.7C277.833 116.633 276.333 116.567 274.6 116.5C272.867 116.433 271.1 116.4 269.3 116.4C267.567 116.4 265.933 116.4 264.4 116.4H232.8V114.3L270.1 66.9ZM271.7 66.9V134.1H260.1V81L270.1 66.9H271.7ZM337.598 59.4V83H360.798V86H337.598V109.5H333.998V86H310.698V83H333.998V59.4H337.598Z" fill="#676CDB"/>
<path d="M25.68 25.3214V26.1214C25.0933 26.3614 24.4933 26.8414 23.88 27.5614C23.2667 28.2547 22.5867 29.3214 21.84 30.7614L14.28 45.7214H12.4L3.04 28.4014C2.56 27.4947 2.12 26.8947 1.72 26.6014C1.34667 26.3081 1.01333 26.1614 0.72 26.1614V25.3214C1.44 25.4014 2.17333 25.4547 2.92 25.4814C3.69333 25.5081 4.53333 25.5214 5.44 25.5214C6.61333 25.5214 7.88 25.5081 9.24 25.4814C10.6 25.4281 11.84 25.3747 12.96 25.3214V26.1614C12.2933 26.1614 11.6933 26.2147 11.16 26.3214C10.6267 26.4281 10.2533 26.6281 10.04 26.9214C9.82667 27.1881 9.88 27.6281 10.2 28.2414L16.52 40.4014L15.28 42.0014L19.4 33.7214C20.3867 31.8014 20.9067 30.2947 20.96 29.2014C21.04 28.1081 20.7733 27.3347 20.16 26.8814C19.5733 26.4014 18.7333 26.1481 17.64 26.1214V25.3214C18.5467 25.3481 19.4 25.3747 20.2 25.4014C21 25.4281 21.8133 25.4414 22.64 25.4414C23.2267 25.4414 23.7733 25.4281 24.28 25.4014C24.8133 25.3747 25.28 25.3481 25.68 25.3214ZM17.12 39.4014V49.4414C17.12 50.4014 17.1867 51.1214 17.32 51.6014C17.48 52.0814 17.7733 52.4014 18.2 52.5614C18.6267 52.7214 19.2667 52.8281 20.12 52.8814V53.6814C19.4 53.6281 18.4667 53.6014 17.32 53.6014C16.2 53.5747 15.08 53.5614 13.96 53.5614C12.7067 53.5614 11.52 53.5747 10.4 53.6014C9.28 53.6014 8.4 53.6281 7.76 53.6814V52.8814C8.61333 52.8281 9.25333 52.7214 9.68 52.5614C10.1067 52.4014 10.3867 52.0814 10.52 51.6014C10.68 51.1214 10.76 50.4014 10.76 49.4414V41.2414L14.24 43.7214L17.12 39.4014ZM33.9597 32.4414C36.3064 32.4414 38.1464 33.1347 39.4797 34.5214C40.813 35.9081 41.4797 38.1747 41.4797 41.3214H28.3197L28.2397 40.5614H36.4397C36.4664 39.2547 36.3864 38.0547 36.1997 36.9614C36.013 35.8414 35.7197 34.9481 35.3197 34.2814C34.9197 33.6147 34.3864 33.2814 33.7197 33.2814C32.7864 33.2814 31.9864 33.8681 31.3197 35.0414C30.6797 36.2147 30.293 38.1614 30.1597 40.8814L30.2797 41.1214C30.253 41.4414 30.2264 41.7747 30.1997 42.1214C30.1997 42.4681 30.1997 42.8281 30.1997 43.2014C30.1997 45.0414 30.453 46.5347 30.9597 47.6814C31.493 48.8281 32.1597 49.6681 32.9597 50.2014C33.7597 50.7081 34.573 50.9614 35.3997 50.9614C35.9597 50.9614 36.533 50.8814 37.1197 50.7214C37.733 50.5347 38.3464 50.2147 38.9597 49.7614C39.573 49.2814 40.1464 48.6147 40.6797 47.7614L41.3997 48.0014C41.0797 49.0147 40.573 50.0014 39.8797 50.9614C39.1864 51.9214 38.3064 52.7081 37.2397 53.3214C36.173 53.9347 34.893 54.2414 33.3997 54.2414C31.5864 54.2414 29.9864 53.8547 28.5997 53.0814C27.213 52.3081 26.1197 51.1347 25.3197 49.5614C24.5464 47.9881 24.1597 45.9881 24.1597 43.5614C24.1597 41.0814 24.573 39.0147 25.3997 37.3614C26.253 35.7081 27.413 34.4814 28.8797 33.6814C30.373 32.8547 32.0664 32.4414 33.9597 32.4414ZM49.3159 53.9614C48.1159 53.9614 47.1159 53.7347 46.3159 53.2814C45.5159 52.8281 44.9293 52.2281 44.5559 51.4814C44.1826 50.7081 43.9959 49.8681 43.9959 48.9614C43.9959 47.8147 44.2493 46.8814 44.7559 46.1614C45.2893 45.4414 45.9693 44.8547 46.7959 44.4014C47.6226 43.9481 48.4893 43.5747 49.3959 43.2814C50.3293 42.9881 51.2093 42.7081 52.0359 42.4414C52.8893 42.1481 53.5693 41.8147 54.0759 41.4414C54.6093 41.0414 54.8759 40.5347 54.8759 39.9214V36.8014C54.8759 36.1081 54.7559 35.4947 54.5159 34.9614C54.3026 34.4014 53.9559 33.9747 53.4759 33.6814C53.0226 33.3881 52.4226 33.2414 51.6759 33.2414C51.1426 33.2414 50.6093 33.3214 50.0759 33.4814C49.5426 33.6147 49.1026 33.8547 48.7559 34.2014C49.5026 34.4681 50.0759 34.8814 50.4759 35.4414C50.9026 35.9747 51.1159 36.5881 51.1159 37.2814C51.1159 38.1881 50.7959 38.9081 50.1559 39.4414C49.5426 39.9747 48.8093 40.2414 47.9559 40.2414C46.9959 40.2414 46.2626 39.9481 45.7559 39.3614C45.2759 38.7481 45.0359 38.0147 45.0359 37.1614C45.0359 36.3881 45.2226 35.7481 45.5959 35.2414C45.9959 34.7347 46.5426 34.2547 47.2359 33.8014C47.9826 33.3747 48.8759 33.0414 49.9159 32.8014C50.9826 32.5614 52.1293 32.4414 53.3559 32.4414C54.5826 32.4414 55.6893 32.5747 56.6759 32.8414C57.6626 33.0814 58.4893 33.5347 59.1559 34.2014C59.7693 34.8147 60.1693 35.5747 60.3559 36.4814C60.5426 37.3614 60.6359 38.4814 60.6359 39.8414V50.7214C60.6359 51.3881 60.7026 51.8547 60.8359 52.1214C60.9693 52.3614 61.1959 52.4814 61.5159 52.4814C61.7559 52.4814 61.9826 52.4147 62.1959 52.2814C62.4359 52.1481 62.6893 51.9881 62.9559 51.8014L63.3559 52.4814C62.7959 52.9614 62.1426 53.3347 61.3959 53.6014C60.6759 53.8414 59.8626 53.9614 58.9559 53.9614C57.9693 53.9614 57.1826 53.8281 56.5959 53.5614C56.0093 53.2681 55.5826 52.8814 55.3159 52.4014C55.0759 51.9214 54.9559 51.3614 54.9559 50.7214C54.3159 51.7347 53.5426 52.5347 52.6359 53.1214C51.7293 53.6814 50.6226 53.9614 49.3159 53.9614ZM52.1559 51.4014C52.6893 51.4014 53.1693 51.2814 53.5959 51.0414C54.0493 50.7747 54.4759 50.3481 54.8759 49.7614V41.5614C54.6359 41.9614 54.3026 42.3214 53.8759 42.6414C53.4493 42.9614 52.9959 43.2947 52.5159 43.6414C52.0359 43.9614 51.5693 44.3214 51.1159 44.7214C50.6893 45.1214 50.3426 45.6147 50.0759 46.2014C49.8093 46.7881 49.6759 47.4947 49.6759 48.3214C49.6759 49.3614 49.9026 50.1347 50.3559 50.6414C50.8093 51.1481 51.4093 51.4014 52.1559 51.4014ZM78.2591 32.4414C79.1124 32.4414 79.8057 32.6281 80.3391 33.0014C80.8724 33.3481 81.2591 33.8014 81.4991 34.3614C81.7657 34.9214 81.8991 35.5081 81.8991 36.1214C81.8991 37.1081 81.6057 37.9214 81.0191 38.5614C80.4591 39.1747 79.7124 39.4814 78.7791 39.4814C77.8457 39.4814 77.1124 39.2547 76.5791 38.8014C76.0724 38.3214 75.8191 37.6947 75.8191 36.9214C75.8191 36.1747 75.9791 35.5614 76.2991 35.0814C76.6457 34.5747 77.0724 34.1481 77.5791 33.8014C77.2057 33.6947 76.8324 33.7081 76.4591 33.8414C75.9524 33.9214 75.4724 34.1347 75.0191 34.4814C74.5657 34.8014 74.1791 35.2147 73.8591 35.7214C73.5391 36.2014 73.2857 36.7347 73.0991 37.3214C72.9124 37.8814 72.8191 38.4281 72.8191 38.9614V49.5614C72.8191 50.8414 73.1257 51.7081 73.7391 52.1614C74.3791 52.6147 75.3257 52.8414 76.5791 52.8414V53.6814C75.9657 53.6547 75.0724 53.6281 73.8991 53.6014C72.7257 53.5481 71.4991 53.5214 70.2191 53.5214C69.1524 53.5214 68.0724 53.5481 66.9791 53.6014C65.8857 53.6281 65.0591 53.6547 64.4991 53.6814V52.8414C65.4324 52.8414 66.0857 52.6414 66.4591 52.2414C66.8591 51.8414 67.0591 51.0814 67.0591 49.9614V37.3614C67.0591 36.1614 66.8724 35.2814 66.4991 34.7214C66.1524 34.1347 65.4857 33.8414 64.4991 33.8414V33.0014C65.3524 33.0814 66.1791 33.1214 66.9791 33.1214C68.0991 33.1214 69.1391 33.0814 70.0991 33.0014C71.0857 32.8947 71.9924 32.7481 72.8191 32.5614V36.2814C73.1391 35.5614 73.5657 34.9081 74.0991 34.3214C74.6324 33.7347 75.2457 33.2814 75.9391 32.9614C76.6324 32.6147 77.4057 32.4414 78.2591 32.4414ZM91.0909 32.4414C92.2109 32.4414 93.1843 32.5881 94.0109 32.8814C94.8643 33.1481 95.4776 33.4147 95.8509 33.6814C96.7576 34.2947 97.3176 33.8947 97.5309 32.4814H98.3709C98.3176 33.2281 98.2776 34.1481 98.2509 35.2414C98.2243 36.3081 98.2109 37.7347 98.2109 39.5214H97.3709C97.2376 38.5347 96.9843 37.5614 96.6109 36.6014C96.2376 35.6414 95.6909 34.8547 94.9709 34.2414C94.2776 33.6281 93.3709 33.3214 92.2509 33.3214C91.4776 33.3214 90.8243 33.5481 90.2909 34.0014C89.7576 34.4281 89.4909 35.0547 89.4909 35.8814C89.4909 36.6814 89.7309 37.3881 90.2109 38.0014C90.6909 38.5881 91.3043 39.1614 92.0509 39.7214C92.8243 40.2547 93.6243 40.8281 94.4509 41.4414C95.3309 42.1081 96.1309 42.7747 96.8509 43.4414C97.5709 44.0814 98.1443 44.7881 98.5709 45.5614C98.9976 46.3347 99.2109 47.2547 99.2109 48.3214C99.2109 49.5214 98.8643 50.5747 98.1709 51.4814C97.4776 52.3614 96.5576 53.0414 95.4109 53.5214C94.2909 54.0014 93.0376 54.2414 91.6509 54.2414C90.8509 54.2414 90.1309 54.1614 89.4909 54.0014C88.8776 53.8414 88.3443 53.6414 87.8909 53.4014C87.5443 53.2414 87.2109 53.0947 86.8909 52.9614C86.5976 52.8014 86.3176 52.6681 86.0509 52.5614C85.7843 52.4814 85.5443 52.5747 85.3309 52.8414C85.1443 53.1081 84.9976 53.4814 84.8909 53.9614H84.0509C84.1043 53.1081 84.1443 52.0681 84.1709 50.8414C84.1976 49.6147 84.2109 47.9881 84.2109 45.9614H85.0509C85.2109 47.4014 85.5043 48.6814 85.9309 49.8014C86.3576 50.8947 86.9309 51.7614 87.6509 52.4014C88.3976 53.0147 89.3309 53.3214 90.4509 53.3214C90.9043 53.3214 91.3443 53.2281 91.7709 53.0414C92.1976 52.8547 92.5443 52.5481 92.8109 52.1214C93.1043 51.6947 93.2509 51.1481 93.2509 50.4814C93.2509 49.3081 92.8643 48.3347 92.0909 47.5614C91.3443 46.7881 90.3843 45.9481 89.2109 45.0414C88.3576 44.3481 87.5443 43.6681 86.7709 43.0014C86.0243 42.3081 85.4109 41.5614 84.9309 40.7614C84.4509 39.9347 84.2109 39.0014 84.2109 37.9614C84.2109 36.7614 84.5309 35.7481 85.1709 34.9214C85.8109 34.0947 86.6509 33.4814 87.6909 33.0814C88.7576 32.6547 89.8909 32.4414 91.0909 32.4414ZM23.76 97.3614C23.6533 98.5347 23.5733 99.6681 23.52 100.761C23.4933 101.855 23.48 102.695 23.48 103.281C23.48 103.815 23.4933 104.321 23.52 104.801C23.5467 105.281 23.5733 105.681 23.6 106.001H22.68C22.4133 104.055 22 102.521 21.44 101.401C20.88 100.255 20.1467 99.4547 19.24 99.0014C18.36 98.5214 17.32 98.2814 16.12 98.2814H14.48C13.7067 98.2814 13.12 98.3481 12.72 98.4814C12.32 98.6147 12.0533 98.8814 11.92 99.2814C11.7867 99.6814 11.72 100.295 11.72 101.121V121.921C11.72 122.748 11.7867 123.361 11.92 123.761C12.0533 124.161 12.32 124.428 12.72 124.561C13.12 124.695 13.7067 124.761 14.48 124.761H16.44C17.64 124.761 18.6933 124.508 19.6 124.001C20.5333 123.468 21.32 122.575 21.96 121.321C22.6267 120.068 23.1333 118.375 23.48 116.241H24.4C24.32 117.095 24.28 118.215 24.28 119.601C24.28 120.215 24.2933 121.081 24.32 122.201C24.3467 123.321 24.4267 124.481 24.56 125.681C23.2 125.628 21.6667 125.601 19.96 125.601C18.2533 125.575 16.7333 125.561 15.4 125.561C14.7333 125.561 13.88 125.561 12.84 125.561C11.8 125.561 10.68 125.575 9.48 125.601C8.28 125.601 7.06667 125.615 5.84 125.641C4.61333 125.641 3.45333 125.655 2.36 125.681V124.881C3.21333 124.828 3.85333 124.721 4.28 124.561C4.70667 124.401 4.98667 124.081 5.12 123.601C5.28 123.121 5.36 122.401 5.36 121.441V101.601C5.36 100.615 5.28 99.8947 5.12 99.4414C4.98667 98.9614 4.69333 98.6414 4.24 98.4814C3.81333 98.2947 3.18667 98.1881 2.36 98.1614V97.3614C3.45333 97.3881 4.61333 97.4147 5.84 97.4414C7.06667 97.4414 8.28 97.4547 9.48 97.4814C10.68 97.4814 11.8 97.4814 12.84 97.4814C13.88 97.4814 14.7333 97.4814 15.4 97.4814C16.6267 97.4814 18.0133 97.4814 19.56 97.4814C21.1333 97.4547 22.5333 97.4147 23.76 97.3614ZM17.52 111.041C17.52 111.041 17.52 111.175 17.52 111.441C17.52 111.708 17.52 111.841 17.52 111.841H10.52C10.52 111.841 10.52 111.708 10.52 111.441C10.52 111.175 10.52 111.041 10.52 111.041H17.52ZM18.68 105.761C18.5733 107.281 18.52 108.441 18.52 109.241C18.5467 110.041 18.56 110.775 18.56 111.441C18.56 112.108 18.5733 112.841 18.6 113.641C18.6267 114.441 18.6933 115.601 18.8 117.121H17.88C17.7467 116.188 17.4933 115.321 17.12 114.521C16.7733 113.721 16.2667 113.081 15.6 112.601C14.9333 112.095 14.0667 111.841 13 111.841V111.041C13.8 111.041 14.48 110.881 15.04 110.561C15.6 110.215 16.0533 109.775 16.4 109.241C16.7733 108.681 17.0667 108.095 17.28 107.481C17.4933 106.868 17.6533 106.295 17.76 105.761H18.68ZM36.1916 105.001V105.841C35.6582 105.841 35.2582 105.961 34.9916 106.201C34.7516 106.441 34.7649 106.775 35.0316 107.201L45.5516 122.841C45.8716 123.321 46.2049 123.761 46.5516 124.161C46.9249 124.535 47.3382 124.761 47.7916 124.841V125.681C47.3916 125.655 46.7782 125.628 45.9516 125.601C45.1516 125.548 44.3382 125.521 43.5116 125.521C42.5516 125.521 41.5649 125.548 40.5516 125.601C39.5382 125.628 38.7916 125.655 38.3116 125.681V124.841C38.8449 124.841 39.2316 124.721 39.4716 124.481C39.7382 124.241 39.7382 123.908 39.4716 123.481L28.9516 107.841C28.4982 107.175 28.1116 106.695 27.7916 106.401C27.4982 106.081 27.1382 105.895 26.7116 105.841V105.001C27.1649 105.028 27.8449 105.068 28.7516 105.121C29.6582 105.148 30.5649 105.161 31.4716 105.161C32.3516 105.161 33.2449 105.148 34.1516 105.121C35.0582 105.068 35.7382 105.028 36.1916 105.001ZM35.2716 116.041C35.2716 116.041 35.2849 116.121 35.3116 116.281C35.3649 116.441 35.4049 116.601 35.4316 116.761C35.4849 116.921 35.5116 117.001 35.5116 117.001L33.9116 119.041C33.1116 120.081 32.6716 121.041 32.5916 121.921C32.5116 122.775 32.7382 123.468 33.2716 124.001C33.8049 124.508 34.5382 124.801 35.4716 124.881V125.681C34.9649 125.655 34.3382 125.641 33.5916 125.641C32.8716 125.615 32.1649 125.601 31.4716 125.601C30.7782 125.575 30.1916 125.561 29.7116 125.561C29.1249 125.561 28.6049 125.575 28.1516 125.601C27.7249 125.601 27.3116 125.628 26.9116 125.681V124.881C27.5249 124.641 28.1116 124.295 28.6716 123.841C29.2316 123.361 29.8582 122.681 30.5516 121.801L35.2716 116.041ZM46.6316 105.001V105.801C46.0716 105.961 45.4849 106.308 44.8716 106.841C44.2582 107.375 43.6182 108.055 42.9516 108.881L38.5516 114.401C38.5516 114.401 38.5249 114.335 38.4716 114.201C38.4449 114.041 38.4049 113.881 38.3516 113.721C38.3249 113.561 38.3116 113.481 38.3116 113.481L40.3116 110.801C41.0316 109.868 41.4716 109.041 41.6316 108.321C41.7916 107.601 41.6716 107.015 41.2716 106.561C40.8982 106.108 40.2316 105.855 39.2716 105.801V105.001C40.0449 105.028 40.8316 105.055 41.6316 105.081C42.4316 105.108 43.1516 105.121 43.7916 105.121C44.4049 105.121 44.9382 105.108 45.3916 105.081C45.8449 105.055 46.2582 105.028 46.6316 105.001ZM56.9169 104.561V128.961C56.9169 130.215 57.2369 131.041 57.8769 131.441C58.5169 131.868 59.3969 132.081 60.5169 132.081V132.921C59.8235 132.895 58.8635 132.855 57.6369 132.801C56.4369 132.775 55.1569 132.761 53.7969 132.761C52.8102 132.761 51.8369 132.775 50.8769 132.801C49.9435 132.855 49.2369 132.895 48.7569 132.921V132.081C49.6369 132.081 50.2502 131.895 50.5969 131.521C50.9702 131.148 51.1569 130.428 51.1569 129.361V109.361C51.1569 108.161 50.9702 107.281 50.5969 106.721C50.2235 106.135 49.5569 105.841 48.5969 105.841V105.001C49.4502 105.081 50.2769 105.121 51.0769 105.121C52.1702 105.121 53.2102 105.081 54.1969 105.001C55.1835 104.895 56.0902 104.748 56.9169 104.561ZM63.1169 104.441C64.4769 104.441 65.6902 104.815 66.7569 105.561C67.8235 106.281 68.6769 107.388 69.3169 108.881C69.9569 110.348 70.2769 112.188 70.2769 114.401C70.2769 116.348 70.0502 118.055 69.5969 119.521C69.1702 120.988 68.5435 122.228 67.7169 123.241C66.9169 124.228 65.9435 124.975 64.7969 125.481C63.6769 125.988 62.4102 126.241 60.9969 126.241C59.9569 126.241 59.0102 126.055 58.1569 125.681C57.3035 125.335 56.6502 124.828 56.1969 124.161L56.5969 123.641C56.8635 124.121 57.2369 124.495 57.7169 124.761C58.2235 125.028 58.7969 125.161 59.4369 125.161C60.6369 125.161 61.5835 124.761 62.2769 123.961C62.9702 123.135 63.4635 121.988 63.7569 120.521C64.0769 119.028 64.2369 117.255 64.2369 115.201C64.2369 112.908 64.0902 111.108 63.7969 109.801C63.5035 108.495 63.1035 107.561 62.5969 107.001C62.0902 106.441 61.4769 106.161 60.7569 106.161C59.7969 106.161 58.9169 106.535 58.1169 107.281C57.3435 108.028 56.9035 109.095 56.7969 110.481L56.5969 109.081C57.0769 107.561 57.8902 106.415 59.0369 105.641C60.2102 104.841 61.5702 104.441 63.1169 104.441ZM83.0613 104.441C85.4079 104.441 87.2479 105.135 88.5813 106.521C89.9146 107.908 90.5813 110.175 90.5813 113.321H77.4213L77.3413 112.561H85.5413C85.5679 111.255 85.4879 110.055 85.3013 108.961C85.1146 107.841 84.8213 106.948 84.4213 106.281C84.0213 105.615 83.4879 105.281 82.8213 105.281C81.8879 105.281 81.0879 105.868 80.4213 107.041C79.7813 108.215 79.3946 110.161 79.2613 112.881L79.3813 113.121C79.3546 113.441 79.3279 113.775 79.3013 114.121C79.3013 114.468 79.3013 114.828 79.3013 115.201C79.3013 117.041 79.5546 118.535 80.0613 119.681C80.5946 120.828 81.2613 121.668 82.0612 122.201C82.8613 122.708 83.6746 122.961 84.5013 122.961C85.0613 122.961 85.6346 122.881 86.2213 122.721C86.8346 122.535 87.4479 122.215 88.0613 121.761C88.6746 121.281 89.2479 120.615 89.7813 119.761L90.5013 120.001C90.1813 121.015 89.6746 122.001 88.9813 122.961C88.2879 123.921 87.4079 124.708 86.3413 125.321C85.2746 125.935 83.9946 126.241 82.5013 126.241C80.6879 126.241 79.0879 125.855 77.7013 125.081C76.3146 124.308 75.2213 123.135 74.4212 121.561C73.6479 119.988 73.2613 117.988 73.2613 115.561C73.2613 113.081 73.6746 111.015 74.5013 109.361C75.3546 107.708 76.5146 106.481 77.9813 105.681C79.4746 104.855 81.1679 104.441 83.0613 104.441ZM106.423 104.441C107.276 104.441 107.97 104.628 108.503 105.001C109.036 105.348 109.423 105.801 109.663 106.361C109.93 106.921 110.063 107.508 110.063 108.121C110.063 109.108 109.77 109.921 109.183 110.561C108.623 111.175 107.876 111.481 106.943 111.481C106.01 111.481 105.276 111.255 104.743 110.801C104.236 110.321 103.983 109.695 103.983 108.921C103.983 108.175 104.143 107.561 104.463 107.081C104.81 106.575 105.236 106.148 105.743 105.801C105.37 105.695 104.996 105.708 104.623 105.841C104.116 105.921 103.636 106.135 103.183 106.481C102.73 106.801 102.343 107.215 102.023 107.721C101.703 108.201 101.45 108.735 101.263 109.321C101.076 109.881 100.983 110.428 100.983 110.961V121.561C100.983 122.841 101.29 123.708 101.903 124.161C102.543 124.615 103.49 124.841 104.743 124.841V125.681C104.13 125.655 103.236 125.628 102.063 125.601C100.89 125.548 99.6631 125.521 98.3831 125.521C97.3165 125.521 96.2365 125.548 95.1431 125.601C94.0498 125.628 93.2231 125.655 92.6631 125.681V124.841C93.5965 124.841 94.2498 124.641 94.6231 124.241C95.0231 123.841 95.2231 123.081 95.2231 121.961V109.361C95.2231 108.161 95.0365 107.281 94.6631 106.721C94.3165 106.135 93.6498 105.841 92.6631 105.841V105.001C93.5165 105.081 94.3431 105.121 95.1431 105.121C96.2631 105.121 97.3031 105.081 98.2631 105.001C99.2498 104.895 100.156 104.748 100.983 104.561V108.281C101.303 107.561 101.73 106.908 102.263 106.321C102.796 105.735 103.41 105.281 104.103 104.961C104.796 104.615 105.57 104.441 106.423 104.441ZM116.535 94.6814C117.655 94.6814 118.535 94.9614 119.175 95.5214C119.842 96.0547 120.175 96.8014 120.175 97.7614C120.175 98.7214 119.842 99.4814 119.175 100.041C118.535 100.575 117.655 100.841 116.535 100.841C115.415 100.841 114.522 100.575 113.855 100.041C113.215 99.4814 112.895 98.7214 112.895 97.7614C112.895 96.8014 113.215 96.0547 113.855 95.5214C114.522 94.9614 115.415 94.6814 116.535 94.6814ZM119.655 104.561V121.961C119.655 123.081 119.842 123.841 120.215 124.241C120.615 124.641 121.282 124.841 122.215 124.841V125.681C121.735 125.655 120.988 125.628 119.975 125.601C118.962 125.548 117.935 125.521 116.895 125.521C115.855 125.521 114.802 125.548 113.735 125.601C112.668 125.628 111.868 125.655 111.335 125.681V124.841C112.268 124.841 112.922 124.641 113.295 124.241C113.695 123.841 113.895 123.081 113.895 121.961V109.361C113.895 108.161 113.708 107.281 113.335 106.721C112.988 106.135 112.322 105.841 111.335 105.841V105.001C112.188 105.081 113.015 105.121 113.815 105.121C114.935 105.121 115.975 105.081 116.935 105.001C117.922 104.895 118.828 104.748 119.655 104.561ZM134.272 104.441C136.619 104.441 138.459 105.135 139.792 106.521C141.126 107.908 141.792 110.175 141.792 113.321H128.632L128.552 112.561H136.752C136.779 111.255 136.699 110.055 136.512 108.961C136.326 107.841 136.032 106.948 135.632 106.281C135.232 105.615 134.699 105.281 134.032 105.281C133.099 105.281 132.299 105.868 131.632 107.041C130.992 108.215 130.606 110.161 130.472 112.881L130.592 113.121C130.566 113.441 130.539 113.775 130.512 114.121C130.512 114.468 130.512 114.828 130.512 115.201C130.512 117.041 130.766 118.535 131.272 119.681C131.806 120.828 132.472 121.668 133.272 122.201C134.072 122.708 134.886 122.961 135.712 122.961C136.272 122.961 136.846 122.881 137.432 122.721C138.046 122.535 138.659 122.215 139.272 121.761C139.886 121.281 140.459 120.615 140.992 119.761L141.712 120.001C141.392 121.015 140.886 122.001 140.192 122.961C139.499 123.921 138.619 124.708 137.552 125.321C136.486 125.935 135.206 126.241 133.712 126.241C131.899 126.241 130.299 125.855 128.912 125.081C127.526 124.308 126.432 123.135 125.632 121.561C124.859 119.988 124.472 117.988 124.472 115.561C124.472 113.081 124.886 111.015 125.712 109.361C126.566 107.708 127.726 106.481 129.192 105.681C130.686 104.855 132.379 104.441 134.272 104.441ZM158.754 104.441C159.874 104.441 160.781 104.588 161.474 104.881C162.194 105.148 162.754 105.521 163.154 106.001C163.581 106.508 163.887 107.161 164.074 107.961C164.287 108.761 164.394 109.841 164.394 111.201V121.961C164.394 123.081 164.581 123.841 164.954 124.241C165.354 124.641 166.021 124.841 166.954 124.841V125.681C166.447 125.655 165.687 125.628 164.674 125.601C163.661 125.548 162.661 125.521 161.674 125.521C160.661 125.521 159.661 125.548 158.674 125.601C157.714 125.628 156.981 125.655 156.474 125.681V124.841C157.274 124.841 157.834 124.641 158.154 124.241C158.474 123.841 158.634 123.081 158.634 121.961V109.521C158.634 108.855 158.567 108.281 158.434 107.801C158.301 107.295 158.061 106.908 157.714 106.641C157.367 106.348 156.847 106.201 156.154 106.201C155.434 106.201 154.767 106.401 154.154 106.801C153.567 107.201 153.087 107.761 152.714 108.481C152.367 109.175 152.194 109.961 152.194 110.841V121.961C152.194 123.081 152.354 123.841 152.674 124.241C153.021 124.641 153.581 124.841 154.354 124.841V125.681C153.874 125.655 153.167 125.628 152.234 125.601C151.327 125.548 150.381 125.521 149.394 125.521C148.381 125.521 147.341 125.548 146.274 125.601C145.207 125.628 144.407 125.655 143.874 125.681V124.841C144.807 124.841 145.461 124.641 145.834 124.241C146.234 123.841 146.434 123.081 146.434 121.961V109.361C146.434 108.161 146.247 107.281 145.874 106.721C145.527 106.135 144.861 105.841 143.874 105.841V105.001C144.727 105.081 145.554 105.121 146.354 105.121C147.474 105.121 148.514 105.081 149.474 105.001C150.461 104.895 151.367 104.748 152.194 104.561V108.161C152.861 106.801 153.767 105.841 154.914 105.281C156.061 104.721 157.341 104.441 158.754 104.441ZM178.844 104.441C179.884 104.441 180.831 104.561 181.684 104.801C182.564 105.015 183.284 105.295 183.844 105.641C184.538 106.068 185.071 106.601 185.444 107.241C185.844 107.855 186.044 108.575 186.044 109.401C186.044 110.335 185.751 111.108 185.164 111.721C184.578 112.308 183.818 112.601 182.884 112.601C181.951 112.601 181.204 112.335 180.644 111.801C180.084 111.268 179.804 110.548 179.804 109.641C179.804 108.788 180.071 108.081 180.604 107.521C181.138 106.935 181.751 106.548 182.444 106.361C182.231 106.095 181.911 105.868 181.484 105.681C181.058 105.495 180.578 105.401 180.044 105.401C179.218 105.401 178.484 105.641 177.844 106.121C177.231 106.601 176.711 107.268 176.284 108.121C175.858 108.975 175.524 109.975 175.284 111.121C175.071 112.268 174.964 113.521 174.964 114.881C174.964 116.935 175.218 118.548 175.724 119.721C176.258 120.895 176.924 121.721 177.724 122.201C178.551 122.681 179.404 122.921 180.284 122.921C180.791 122.921 181.338 122.841 181.924 122.681C182.538 122.521 183.151 122.201 183.764 121.721C184.404 121.241 184.991 120.561 185.524 119.681L186.204 119.921C185.911 120.908 185.431 121.895 184.764 122.881C184.098 123.868 183.231 124.681 182.164 125.321C181.098 125.935 179.791 126.241 178.244 126.241C176.511 126.241 174.938 125.868 173.524 125.121C172.138 124.348 171.018 123.175 170.164 121.601C169.338 120.001 168.924 117.948 168.924 115.441C168.924 113.041 169.351 111.028 170.204 109.401C171.084 107.748 172.271 106.508 173.764 105.681C175.258 104.855 176.951 104.441 178.844 104.441ZM198.608 104.441C200.955 104.441 202.795 105.135 204.128 106.521C205.461 107.908 206.128 110.175 206.128 113.321H192.968L192.888 112.561H201.088C201.115 111.255 201.035 110.055 200.848 108.961C200.661 107.841 200.368 106.948 199.968 106.281C199.568 105.615 199.035 105.281 198.368 105.281C197.435 105.281 196.635 105.868 195.968 107.041C195.328 108.215 194.941 110.161 194.808 112.881L194.928 113.121C194.901 113.441 194.875 113.775 194.848 114.121C194.848 114.468 194.848 114.828 194.848 115.201C194.848 117.041 195.101 118.535 195.608 119.681C196.141 120.828 196.808 121.668 197.608 122.201C198.408 122.708 199.221 122.961 200.048 122.961C200.608 122.961 201.181 122.881 201.768 122.721C202.381 122.535 202.995 122.215 203.608 121.761C204.221 121.281 204.795 120.615 205.328 119.761L206.048 120.001C205.728 121.015 205.221 122.001 204.528 122.961C203.835 123.921 202.955 124.708 201.888 125.321C200.821 125.935 199.541 126.241 198.048 126.241C196.235 126.241 194.635 125.855 193.248 125.081C191.861 124.308 190.768 123.135 189.968 121.561C189.195 119.988 188.808 117.988 188.808 115.561C188.808 113.081 189.221 111.015 190.048 109.361C190.901 107.708 192.061 106.481 193.528 105.681C195.021 104.855 196.715 104.441 198.608 104.441ZM39.96 169.361V170.161C39.3733 170.375 38.76 170.841 38.12 171.561C37.48 172.255 36.92 173.375 36.44 174.921L29.4 197.761C29.1867 197.735 28.96 197.721 28.72 197.721C28.48 197.721 28.24 197.721 28 197.721C27.76 197.721 27.52 197.721 27.28 197.721C27.04 197.721 26.8133 197.735 26.6 197.761L18.2 172.321C17.9333 171.495 17.6 170.935 17.2 170.641C16.8267 170.348 16.4267 170.188 16 170.161V169.361C16.7467 169.388 17.6267 169.415 18.64 169.441C19.68 169.468 20.7067 169.481 21.72 169.481C22.8933 169.481 23.9867 169.468 25 169.441C26.04 169.415 26.8667 169.388 27.48 169.361V170.161C26.68 170.188 26.04 170.281 25.56 170.441C25.1067 170.601 24.84 170.908 24.76 171.361C24.7067 171.815 24.84 172.535 25.16 173.521L30.84 190.881L29.92 192.521L34.44 178.161C35.08 176.135 35.3867 174.548 35.36 173.401C35.3333 172.255 35.0267 171.441 34.44 170.961C33.8533 170.455 33.0133 170.188 31.92 170.161V169.361C32.8267 169.388 33.68 169.415 34.48 169.441C35.28 169.468 36.08 169.481 36.88 169.481C37.4933 169.481 38.0533 169.468 38.56 169.441C39.0933 169.415 39.56 169.388 39.96 169.361ZM11.4 169.361V170.161C10.8667 170.241 10.4933 170.441 10.28 170.761C10.0667 171.055 9.97333 171.455 10 171.961C10.0533 172.441 10.1733 172.961 10.36 173.521L16.48 191.281L15.4 192.721L20.52 177.761L21.08 178.841L14.8 197.761C14.5867 197.735 14.36 197.721 14.12 197.721C13.88 197.721 13.64 197.721 13.4 197.721C13.16 197.721 12.92 197.721 12.68 197.721C12.44 197.721 12.2133 197.735 12 197.761L3.04 172.721C2.69333 171.735 2.28 171.068 1.8 170.721C1.34667 170.375 0.92 170.188 0.52 170.161V169.361C1.32 169.388 2.26667 169.415 3.36 169.441C4.45333 169.468 5.49333 169.481 6.48 169.481C7.54667 169.481 8.49333 169.468 9.32 169.441C10.1733 169.415 10.8667 169.388 11.4 169.361ZM48.1784 176.441C50.1251 176.441 51.8318 176.801 53.2984 177.521C54.7651 178.241 55.9118 179.401 56.7384 181.001C57.5651 182.601 57.9784 184.721 57.9784 187.361C57.9784 190.001 57.5651 192.121 56.7384 193.721C55.9118 195.295 54.7651 196.441 53.2984 197.161C51.8318 197.881 50.1251 198.241 48.1784 198.241C46.2851 198.241 44.5918 197.881 43.0984 197.161C41.6318 196.441 40.4718 195.295 39.6184 193.721C38.7918 192.121 38.3784 190.001 38.3784 187.361C38.3784 184.721 38.7918 182.601 39.6184 181.001C40.4718 179.401 41.6318 178.241 43.0984 177.521C44.5918 176.801 46.2851 176.441 48.1784 176.441ZM48.1784 177.241C47.1118 177.241 46.2184 178.041 45.4984 179.641C44.7784 181.215 44.4184 183.788 44.4184 187.361C44.4184 190.935 44.7784 193.508 45.4984 195.081C46.2184 196.655 47.1118 197.441 48.1784 197.441C49.2718 197.441 50.1651 196.655 50.8584 195.081C51.5784 193.508 51.9384 190.935 51.9384 187.361C51.9384 183.788 51.5784 181.215 50.8584 179.641C50.1651 178.041 49.2718 177.241 48.1784 177.241ZM74.2356 176.441C75.089 176.441 75.7823 176.628 76.3156 177.001C76.849 177.348 77.2356 177.801 77.4756 178.361C77.7423 178.921 77.8756 179.508 77.8756 180.121C77.8756 181.108 77.5823 181.921 76.9956 182.561C76.4356 183.175 75.689 183.481 74.7556 183.481C73.8223 183.481 73.089 183.255 72.5556 182.801C72.049 182.321 71.7956 181.695 71.7956 180.921C71.7956 180.175 71.9556 179.561 72.2756 179.081C72.6223 178.575 73.049 178.148 73.5556 177.801C73.1823 177.695 72.809 177.708 72.4356 177.841C71.929 177.921 71.449 178.135 70.9956 178.481C70.5423 178.801 70.1556 179.215 69.8356 179.721C69.5156 180.201 69.2623 180.735 69.0756 181.321C68.889 181.881 68.7956 182.428 68.7956 182.961V193.561C68.7956 194.841 69.1023 195.708 69.7156 196.161C70.3556 196.615 71.3023 196.841 72.5556 196.841V197.681C71.9423 197.655 71.049 197.628 69.8756 197.601C68.7023 197.548 67.4756 197.521 66.1956 197.521C65.129 197.521 64.049 197.548 62.9556 197.601C61.8623 197.628 61.0356 197.655 60.4756 197.681V196.841C61.409 196.841 62.0623 196.641 62.4356 196.241C62.8356 195.841 63.0356 195.081 63.0356 193.961V181.361C63.0356 180.161 62.849 179.281 62.4756 178.721C62.129 178.135 61.4623 177.841 60.4756 177.841V177.001C61.329 177.081 62.1556 177.121 62.9556 177.121C64.0756 177.121 65.1156 177.081 66.0756 177.001C67.0623 176.895 67.969 176.748 68.7956 176.561V180.281C69.1156 179.561 69.5423 178.908 70.0756 178.321C70.609 177.735 71.2223 177.281 71.9156 176.961C72.609 176.615 73.3823 176.441 74.2356 176.441ZM86.2519 166.361V193.961C86.2519 195.081 86.4252 195.841 86.7719 196.241C87.1452 196.641 87.7719 196.841 88.6519 196.841V197.681C88.1452 197.655 87.3985 197.628 86.4119 197.601C85.4519 197.548 84.4652 197.521 83.4519 197.521C82.4119 197.521 81.3585 197.548 80.2919 197.601C79.2519 197.628 78.4652 197.655 77.9319 197.681V196.841C78.8652 196.841 79.5185 196.641 79.8919 196.241C80.2919 195.841 80.4919 195.081 80.4919 193.961V171.161C80.4919 169.961 80.3052 169.081 79.9319 168.521C79.5852 167.935 78.9185 167.641 77.9319 167.641V166.801C78.7852 166.881 79.6119 166.921 80.4119 166.921C81.5052 166.921 82.5452 166.881 83.5319 166.801C84.5185 166.695 85.4252 166.548 86.2519 166.361ZM99.2919 177.001V177.801C98.4652 177.961 97.6385 178.308 96.8119 178.841C95.9852 179.375 95.1452 180.055 94.2919 180.881L91.2119 184.081L91.6119 183.321L98.4519 194.761C98.7452 195.241 99.0519 195.668 99.3719 196.041C99.6919 196.415 100.079 196.681 100.532 196.841V197.681C100.132 197.655 99.5319 197.628 98.7319 197.601C97.9319 197.548 97.1319 197.521 96.3319 197.521C95.3452 197.521 94.3585 197.548 93.3719 197.601C92.3852 197.628 91.6519 197.655 91.1719 197.681V196.841C91.7052 196.841 92.0652 196.721 92.2519 196.481C92.4385 196.215 92.4119 195.881 92.1719 195.481L88.2119 188.321C87.8919 187.815 87.5719 187.495 87.2519 187.361C86.9585 187.201 86.5585 187.108 86.0519 187.081V186.321C86.6119 186.268 87.0919 186.175 87.4919 186.041C87.9185 185.908 88.3052 185.655 88.6519 185.281L91.6919 182.321C92.5985 181.468 93.0519 180.708 93.0519 180.041C93.0519 179.375 92.7585 178.841 92.1719 178.441C91.6119 178.041 90.8652 177.828 89.9319 177.801V177.001C90.6785 177.028 91.4919 177.055 92.3719 177.081C93.2519 177.108 93.9985 177.121 94.6119 177.121C95.1452 177.121 95.7052 177.121 96.2919 177.121C96.9052 177.095 97.4785 177.081 98.0119 177.081C98.5452 177.055 98.9719 177.028 99.2919 177.001ZM106.73 166.681C107.85 166.681 108.73 166.961 109.37 167.521C110.037 168.055 110.37 168.801 110.37 169.761C110.37 170.721 110.037 171.481 109.37 172.041C108.73 172.575 107.85 172.841 106.73 172.841C105.61 172.841 104.717 172.575 104.05 172.041C103.41 171.481 103.09 170.721 103.09 169.761C103.09 168.801 103.41 168.055 104.05 167.521C104.717 166.961 105.61 166.681 106.73 166.681ZM109.85 176.561V193.961C109.85 195.081 110.037 195.841 110.41 196.241C110.81 196.641 111.477 196.841 112.41 196.841V197.681C111.93 197.655 111.184 197.628 110.17 197.601C109.157 197.548 108.13 197.521 107.09 197.521C106.05 197.521 104.997 197.548 103.93 197.601C102.864 197.628 102.064 197.655 101.53 197.681V196.841C102.464 196.841 103.117 196.641 103.49 196.241C103.89 195.841 104.09 195.081 104.09 193.961V181.361C104.09 180.161 103.904 179.281 103.53 178.721C103.184 178.135 102.517 177.841 101.53 177.841V177.001C102.384 177.081 103.21 177.121 104.01 177.121C105.13 177.121 106.17 177.081 107.13 177.001C108.117 176.895 109.024 176.748 109.85 176.561ZM129.028 176.441C130.148 176.441 131.054 176.588 131.748 176.881C132.468 177.148 133.028 177.521 133.428 178.001C133.854 178.508 134.161 179.161 134.348 179.961C134.561 180.761 134.668 181.841 134.668 183.201V193.961C134.668 195.081 134.854 195.841 135.227 196.241C135.628 196.641 136.294 196.841 137.228 196.841V197.681C136.721 197.655 135.961 197.628 134.948 197.601C133.934 197.548 132.934 197.521 131.948 197.521C130.934 197.521 129.934 197.548 128.948 197.601C127.988 197.628 127.254 197.655 126.748 197.681V196.841C127.548 196.841 128.108 196.641 128.428 196.241C128.748 195.841 128.908 195.081 128.908 193.961V181.521C128.908 180.855 128.841 180.281 128.708 179.801C128.574 179.295 128.334 178.908 127.988 178.641C127.641 178.348 127.121 178.201 126.428 178.201C125.708 178.201 125.041 178.401 124.428 178.801C123.841 179.201 123.361 179.761 122.988 180.481C122.641 181.175 122.468 181.961 122.468 182.841V193.961C122.468 195.081 122.628 195.841 122.948 196.241C123.294 196.641 123.854 196.841 124.628 196.841V197.681C124.148 197.655 123.441 197.628 122.508 197.601C121.601 197.548 120.654 197.521 119.668 197.521C118.654 197.521 117.614 197.548 116.548 197.601C115.481 197.628 114.681 197.655 114.148 197.681V196.841C115.081 196.841 115.734 196.641 116.108 196.241C116.508 195.841 116.708 195.081 116.708 193.961V181.361C116.708 180.161 116.521 179.281 116.148 178.721C115.801 178.135 115.134 177.841 114.148 177.841V177.001C115.001 177.081 115.828 177.121 116.628 177.121C117.748 177.121 118.788 177.081 119.748 177.001C120.734 176.895 121.641 176.748 122.468 176.561V180.161C123.134 178.801 124.041 177.841 125.188 177.281C126.334 176.721 127.614 176.441 129.028 176.441ZM146.204 205.201C144.551 205.201 143.071 205.055 141.764 204.761C140.484 204.495 139.471 204.068 138.724 203.481C138.004 202.921 137.644 202.228 137.644 201.401C137.644 200.575 138.018 199.828 138.764 199.161C139.511 198.521 140.618 198.015 142.084 197.641L142.444 198.281C141.938 198.681 141.564 199.108 141.324 199.561C141.111 200.041 141.004 200.535 141.004 201.041C141.004 202.161 141.511 203.015 142.524 203.601C143.564 204.215 144.964 204.521 146.724 204.521C147.924 204.521 148.991 204.361 149.924 204.041C150.884 203.721 151.631 203.241 152.164 202.601C152.724 201.961 153.004 201.175 153.004 200.241C153.004 199.441 152.711 198.761 152.124 198.201C151.538 197.668 150.364 197.401 148.604 197.401H146.124C145.031 197.401 144.071 197.281 143.244 197.041C142.444 196.801 141.818 196.428 141.364 195.921C140.911 195.388 140.684 194.721 140.684 193.921C140.684 192.801 141.124 191.815 142.004 190.961C142.884 190.108 144.191 189.308 145.924 188.561L146.324 188.881C145.818 189.201 145.338 189.548 144.884 189.921C144.458 190.268 144.244 190.721 144.244 191.281C144.244 192.135 144.778 192.561 145.844 192.561H150.204C151.671 192.561 152.978 192.735 154.124 193.081C155.298 193.428 156.218 194.001 156.884 194.801C157.578 195.575 157.924 196.588 157.924 197.841C157.924 199.148 157.498 200.361 156.644 201.481C155.818 202.601 154.538 203.495 152.804 204.161C151.071 204.855 148.871 205.201 146.204 205.201ZM146.604 189.161C145.084 189.161 143.724 188.935 142.524 188.481C141.324 188.028 140.378 187.335 139.684 186.401C138.991 185.468 138.644 184.268 138.644 182.801C138.644 181.335 138.991 180.135 139.684 179.201C140.378 178.241 141.324 177.548 142.524 177.121C143.724 176.668 145.084 176.441 146.604 176.441C148.124 176.441 149.484 176.668 150.684 177.121C151.884 177.548 152.831 178.241 153.524 179.201C154.218 180.135 154.564 181.335 154.564 182.801C154.564 184.268 154.218 185.468 153.524 186.401C152.831 187.335 151.884 188.028 150.684 188.481C149.484 188.935 148.124 189.161 146.604 189.161ZM146.604 188.441C147.324 188.441 147.884 188.041 148.284 187.241C148.684 186.415 148.884 184.935 148.884 182.801C148.884 180.668 148.684 179.201 148.284 178.401C147.884 177.575 147.324 177.161 146.604 177.161C145.911 177.161 145.351 177.575 144.924 178.401C144.524 179.201 144.324 180.668 144.324 182.801C144.324 184.935 144.524 186.415 144.924 187.241C145.351 188.041 145.911 188.441 146.604 188.441ZM152.844 179.881L152.044 179.601C152.444 178.561 153.084 177.695 153.964 177.001C154.871 176.308 155.844 175.961 156.884 175.961C157.738 175.961 158.378 176.201 158.804 176.681C159.258 177.135 159.484 177.735 159.484 178.481C159.484 179.281 159.271 179.881 158.844 180.281C158.418 180.655 157.938 180.841 157.404 180.841C156.951 180.841 156.524 180.681 156.124 180.361C155.751 180.041 155.538 179.561 155.484 178.921C155.431 178.255 155.658 177.401 156.164 176.361L156.444 176.601C155.431 176.975 154.671 177.415 154.164 177.921C153.658 178.401 153.218 179.055 152.844 179.881Z" fill="white"/>
</svg>
